<svg xmlns="http://www.w3.org/2000/svg" viewBox="0 0 1200 630">
  <defs>
    <pattern id="og" width="96" height="96" patternUnits="userSpaceOnUse">
      <g>
        <ellipse cx="48" cy="31" rx="7" ry="15" fill="#c8a96a" transform="rotate(0 48 48)"/>
        <ellipse cx="48" cy="31" rx="7" ry="15" fill="#c8a96a" transform="rotate(60 48 48)"/>
        <ellipse cx="48" cy="31" rx="7" ry="15" fill="#c8a96a" transform="rotate(120 48 48)"/>
        <ellipse cx="48" cy="31" rx="7" ry="15" fill="#c8a96a" transform="rotate(180 48 48)"/>
        <ellipse cx="48" cy="31" rx="7" ry="15" fill="#c8a96a" transform="rotate(240 48 48)"/>
        <ellipse cx="48" cy="31" rx="7" ry="15" fill="#c8a96a" transform="rotate(300 48 48)"/>
        <circle cx="48" cy="48" r="6" fill="#8a7549"/>
      </g>
    </pattern>
  </defs>
  <rect width="1200" height="630" fill="#f6f2ec"/>
  <rect width="1200" height="630" fill="url(#og)" opacity="0.28"/>
  <rect x="60" y="60" width="1080" height="510" fill="none" stroke="#222" stroke-width="1" opacity="0.25"/>
  <text x="100" y="300" font-family="Georgia, serif" font-size="118" fill="#222222" letter-spacing="-3">Studio Khushi</text>
  <text x="104" y="360" font-family="monospace" font-size="26" fill="#8a7549" letter-spacing="6">SURFACE · PATTERN · PRODUCT · DESIGN</text>
  <text x="104" y="470" font-family="Georgia, serif" font-size="40" fill="#45423c" font-style="italic">Designing products, patterns &amp; visual stories.</text>
</svg>
